<?xml version="1.0" encoding="UTF-8"?>
<svg xmlns="http://www.w3.org/2000/svg" version="1.1" width="100" height="100" viewBox="0 0 100 100"><rect x="0" y="0" width="100" height="100" fill="#ffffff"/><g transform="scale(4.762)"><g transform="translate(0,0)"><path fill-rule="evenodd" d="M8 0L8 1L9 1L9 4L10 4L10 5L11 5L11 6L10 6L10 7L9 7L9 6L8 6L8 8L9 8L9 9L8 9L8 12L9 12L9 13L8 13L8 14L9 14L9 15L10 15L10 17L11 17L11 18L13 18L13 16L14 16L14 17L16 17L16 18L17 18L17 19L18 19L18 21L20 21L20 20L21 20L21 18L19 18L19 16L20 16L20 17L21 17L21 16L20 16L20 14L21 14L21 12L19 12L19 11L20 11L20 10L21 10L21 8L20 8L20 10L19 10L19 9L16 9L16 11L17 11L17 12L19 12L19 14L18 14L18 13L17 13L17 14L13 14L13 13L10 13L10 12L12 12L12 11L10 11L10 10L9 10L9 9L11 9L11 8L12 8L12 10L13 10L13 11L15 11L15 8L14 8L14 10L13 10L13 4L12 4L12 3L11 3L11 2L12 2L12 1L13 1L13 0ZM10 1L10 2L11 2L11 1ZM11 4L11 5L12 5L12 4ZM11 6L11 7L12 7L12 6ZM0 8L0 9L1 9L1 10L2 10L2 12L3 12L3 13L7 13L7 12L6 12L6 11L7 11L7 10L6 10L6 11L5 11L5 12L4 12L4 10L5 10L5 8L3 8L3 9L2 9L2 8ZM6 8L6 9L7 9L7 8ZM3 9L3 10L4 10L4 9ZM18 10L18 11L19 11L19 10ZM0 11L0 12L1 12L1 11ZM9 11L9 12L10 12L10 11ZM14 12L14 13L15 13L15 12ZM9 13L9 14L10 14L10 13ZM11 14L11 15L12 15L12 14ZM17 14L17 16L16 16L16 15L14 15L14 16L16 16L16 17L17 17L17 16L18 16L18 14ZM8 16L8 18L9 18L9 19L8 19L8 21L12 21L12 20L10 20L10 18L9 18L9 16ZM14 18L14 19L13 19L13 20L16 20L16 21L17 21L17 20L16 20L16 19L15 19L15 18ZM19 19L19 20L20 20L20 19ZM0 0L0 7L7 7L7 0ZM1 1L1 6L6 6L6 1ZM2 2L2 5L5 5L5 2ZM14 0L14 7L21 7L21 0ZM15 1L15 6L20 6L20 1ZM16 2L16 5L19 5L19 2ZM0 14L0 21L7 21L7 14ZM1 15L1 20L6 20L6 15ZM2 16L2 19L5 19L5 16Z" fill="#000000"/></g></g></svg>
