<?xml version="1.0" encoding="UTF-8"?>
<svg xmlns="http://www.w3.org/2000/svg" version="1.1" width="100" height="100" viewBox="0 0 100 100"><rect x="0" y="0" width="100" height="100" fill="#ffffff"/><g transform="scale(4.762)"><g transform="translate(0,0)"><path fill-rule="evenodd" d="M8 0L8 1L9 1L9 2L8 2L8 5L11 5L11 4L12 4L12 3L13 3L13 0L12 0L12 3L11 3L11 2L10 2L10 0ZM9 2L9 4L11 4L11 3L10 3L10 2ZM8 6L8 7L9 7L9 8L8 8L8 9L7 9L7 8L6 8L6 9L7 9L7 10L5 10L5 9L4 9L4 8L0 8L0 11L1 11L1 12L0 12L0 13L1 13L1 12L3 12L3 13L7 13L7 12L5 12L5 11L7 11L7 10L8 10L8 12L9 12L9 13L8 13L8 14L9 14L9 13L10 13L10 10L11 10L11 6L10 6L10 7L9 7L9 6ZM12 6L12 7L13 7L13 6ZM9 8L9 9L8 9L8 10L10 10L10 8ZM13 8L13 9L12 9L12 12L11 12L11 13L12 13L12 12L13 12L13 15L11 15L11 14L10 14L10 15L9 15L9 16L10 16L10 17L12 17L12 16L14 16L14 17L13 17L13 19L12 19L12 18L11 18L11 20L10 20L10 18L9 18L9 17L8 17L8 21L13 21L13 19L14 19L14 20L16 20L16 21L17 21L17 20L18 20L18 19L19 19L19 21L20 21L20 20L21 20L21 19L19 19L19 18L20 18L20 17L21 17L21 15L20 15L20 14L21 14L21 13L20 13L20 14L19 14L19 13L18 13L18 12L16 12L16 13L18 13L18 14L19 14L19 15L18 15L18 16L17 16L17 17L16 17L16 18L15 18L15 19L14 19L14 17L15 17L15 16L16 16L16 15L17 15L17 14L16 14L16 15L15 15L15 14L14 14L14 11L19 11L19 12L20 12L20 10L19 10L19 8L16 8L16 9L15 9L15 10L13 10L13 9L14 9L14 8ZM20 8L20 9L21 9L21 8ZM3 9L3 10L1 10L1 11L3 11L3 12L4 12L4 11L5 11L5 10L4 10L4 9ZM16 9L16 10L17 10L17 9ZM10 15L10 16L11 16L11 15ZM18 16L18 17L17 17L17 18L16 18L16 19L18 19L18 18L19 18L19 17L20 17L20 16ZM0 0L0 7L7 7L7 0ZM1 1L1 6L6 6L6 1ZM2 2L2 5L5 5L5 2ZM14 0L14 7L21 7L21 0ZM15 1L15 6L20 6L20 1ZM16 2L16 5L19 5L19 2ZM0 14L0 21L7 21L7 14ZM1 15L1 20L6 20L6 15ZM2 16L2 19L5 19L5 16Z" fill="#000000"/></g></g></svg>
