<?xml version="1.0" encoding="UTF-8"?>
<svg xmlns="http://www.w3.org/2000/svg" version="1.1" width="100" height="100" viewBox="0 0 100 100"><rect x="0" y="0" width="100" height="100" fill="#ffffff"/><g transform="scale(4.762)"><g transform="translate(0,0)"><path fill-rule="evenodd" d="M9 0L9 3L8 3L8 5L9 5L9 4L10 4L10 7L9 7L9 6L8 6L8 7L9 7L9 9L8 9L8 8L5 8L5 10L4 10L4 9L3 9L3 10L2 10L2 8L0 8L0 12L2 12L2 13L3 13L3 12L4 12L4 11L5 11L5 12L6 12L6 13L7 13L7 12L10 12L10 10L9 10L9 9L10 9L10 8L12 8L12 10L11 10L11 11L12 11L12 10L13 10L13 11L14 11L14 10L15 10L15 9L14 9L14 10L13 10L13 4L12 4L12 3L10 3L10 1L11 1L11 2L12 2L12 1L13 1L13 0ZM11 5L11 7L12 7L12 5ZM16 8L16 12L17 12L17 10L19 10L19 11L18 11L18 12L19 12L19 13L21 13L21 12L19 12L19 11L21 11L21 9L20 9L20 10L19 10L19 9L18 9L18 8ZM6 9L6 10L7 10L7 9ZM3 10L3 11L2 11L2 12L3 12L3 11L4 11L4 10ZM8 10L8 11L9 11L9 10ZM6 11L6 12L7 12L7 11ZM14 12L14 13L8 13L8 16L9 16L9 19L8 19L8 21L9 21L9 19L10 19L10 16L9 16L9 14L12 14L12 15L11 15L11 16L12 16L12 18L13 18L13 16L14 16L14 15L16 15L16 16L15 16L15 17L16 17L16 16L17 16L17 15L16 15L16 14L15 14L15 12ZM17 13L17 14L18 14L18 18L17 18L17 19L16 19L16 18L14 18L14 19L16 19L16 20L15 20L15 21L17 21L17 19L18 19L18 21L19 21L19 20L20 20L20 19L21 19L21 18L19 18L19 16L20 16L20 15L19 15L19 14L18 14L18 13ZM13 14L13 15L14 15L14 14ZM10 20L10 21L12 21L12 20ZM13 20L13 21L14 21L14 20ZM0 0L0 7L7 7L7 0ZM1 1L1 6L6 6L6 1ZM2 2L2 5L5 5L5 2ZM14 0L14 7L21 7L21 0ZM15 1L15 6L20 6L20 1ZM16 2L16 5L19 5L19 2ZM0 14L0 21L7 21L7 14ZM1 15L1 20L6 20L6 15ZM2 16L2 19L5 19L5 16Z" fill="#000000"/></g></g></svg>
