<?xml version="1.0" encoding="UTF-8"?>
<svg xmlns="http://www.w3.org/2000/svg" version="1.1" width="100" height="100" viewBox="0 0 100 100"><rect x="0" y="0" width="100" height="100" fill="#ffffff"/><g transform="scale(4.762)"><g transform="translate(0,0)"><path fill-rule="evenodd" d="M10 0L10 3L12 3L12 4L8 4L8 8L6 8L6 9L7 9L7 10L6 10L6 11L7 11L7 12L6 12L6 13L8 13L8 15L9 15L9 16L10 16L10 14L11 14L11 15L13 15L13 14L14 14L14 16L12 16L12 17L13 17L13 19L12 19L12 18L11 18L11 17L8 17L8 18L9 18L9 19L8 19L8 21L9 21L9 19L10 19L10 21L11 21L11 20L13 20L13 21L14 21L14 20L13 20L13 19L15 19L15 20L16 20L16 19L17 19L17 21L19 21L19 20L20 20L20 19L21 19L21 15L20 15L20 16L18 16L18 15L19 15L19 13L18 13L18 12L17 12L17 10L16 10L16 9L17 9L17 8L14 8L14 9L13 9L13 8L10 8L10 10L11 10L11 11L12 11L12 12L11 12L11 13L10 13L10 11L9 11L9 13L8 13L8 11L7 11L7 10L8 10L8 8L9 8L9 6L10 6L10 7L11 7L11 5L13 5L13 3L12 3L12 2L13 2L13 0L12 0L12 2L11 2L11 0ZM8 1L8 3L9 3L9 1ZM12 6L12 7L13 7L13 6ZM0 8L0 9L2 9L2 10L0 10L0 12L2 12L2 13L4 13L4 11L5 11L5 9L4 9L4 8L3 8L3 9L2 9L2 8ZM18 8L18 9L19 9L19 10L20 10L20 8ZM12 9L12 11L14 11L14 10L15 10L15 9L14 9L14 10L13 10L13 9ZM2 10L2 11L4 11L4 10ZM19 11L19 12L20 12L20 13L21 13L21 11ZM12 12L12 13L11 13L11 14L13 14L13 12ZM16 12L16 13L17 13L17 14L18 14L18 13L17 13L17 12ZM9 13L9 14L10 14L10 13ZM15 14L15 15L16 15L16 16L15 16L15 17L16 17L16 18L17 18L17 19L18 19L18 20L19 20L19 19L20 19L20 18L19 18L19 17L18 17L18 16L17 16L17 15L16 15L16 14ZM10 18L10 19L11 19L11 18ZM18 18L18 19L19 19L19 18ZM0 0L0 7L7 7L7 0ZM1 1L1 6L6 6L6 1ZM2 2L2 5L5 5L5 2ZM14 0L14 7L21 7L21 0ZM15 1L15 6L20 6L20 1ZM16 2L16 5L19 5L19 2ZM0 14L0 21L7 21L7 14ZM1 15L1 20L6 20L6 15ZM2 16L2 19L5 19L5 16Z" fill="#000000"/></g></g></svg>
