<?xml version="1.0" encoding="UTF-8"?>
<svg xmlns="http://www.w3.org/2000/svg" version="1.1" width="100" height="100" viewBox="0 0 100 100"><rect x="0" y="0" width="100" height="100" fill="#ffffff"/><g transform="scale(4.762)"><g transform="translate(0,0)"><path fill-rule="evenodd" d="M8 0L8 1L9 1L9 2L8 2L8 5L11 5L11 4L12 4L12 3L13 3L13 0L12 0L12 3L11 3L11 2L10 2L10 0ZM9 2L9 4L11 4L11 3L10 3L10 2ZM8 6L8 7L9 7L9 8L8 8L8 9L7 9L7 8L6 8L6 9L5 9L5 10L3 10L3 11L2 11L2 10L0 10L0 12L1 12L1 11L2 11L2 12L3 12L3 11L7 11L7 12L6 12L6 13L7 13L7 12L8 12L8 14L9 14L9 15L10 15L10 16L9 16L9 17L8 17L8 21L13 21L13 19L14 19L14 20L15 20L15 19L14 19L14 17L15 17L15 16L16 16L16 15L17 15L17 14L16 14L16 15L15 15L15 14L14 14L14 11L19 11L19 12L20 12L20 11L21 11L21 8L20 8L20 11L19 11L19 8L16 8L16 9L15 9L15 10L13 10L13 9L14 9L14 8L13 8L13 9L12 9L12 12L11 12L11 10L10 10L10 9L11 9L11 6L10 6L10 7L9 7L9 6ZM12 6L12 7L13 7L13 6ZM0 8L0 9L4 9L4 8ZM9 8L9 9L10 9L10 8ZM6 9L6 10L7 10L7 11L8 11L8 10L7 10L7 9ZM16 9L16 10L17 10L17 9ZM9 10L9 12L10 12L10 10ZM4 12L4 13L5 13L5 12ZM12 12L12 13L11 13L11 15L13 15L13 12ZM16 12L16 13L18 13L18 14L19 14L19 15L18 15L18 16L17 16L17 17L16 17L16 18L17 18L17 17L18 17L18 16L20 16L20 17L19 17L19 18L18 18L18 19L17 19L17 20L16 20L16 21L18 21L18 19L19 19L19 21L20 21L20 20L21 20L21 19L19 19L19 18L20 18L20 17L21 17L21 15L20 15L20 14L21 14L21 13L20 13L20 14L19 14L19 13L18 13L18 12ZM12 16L12 17L9 17L9 19L10 19L10 18L12 18L12 19L13 19L13 17L14 17L14 16ZM0 0L0 7L7 7L7 0ZM1 1L1 6L6 6L6 1ZM2 2L2 5L5 5L5 2ZM14 0L14 7L21 7L21 0ZM15 1L15 6L20 6L20 1ZM16 2L16 5L19 5L19 2ZM0 14L0 21L7 21L7 14ZM1 15L1 20L6 20L6 15ZM2 16L2 19L5 19L5 16Z" fill="#000000"/></g></g></svg>
